:FULLY-SPECIFIED
:FORCE-ALL-JOINTS-BE-3DOF
:DEGREES
816
root -4.28285 14.71 -40.3589 394.296 -74.9327 334.44
lfemur -67.0021 17.0998 -22.0235
ltibia 80.1668 0 0
lfoot -1.74342 10.862 0
ltoes -21.3274 0 0
rfemur -29.8838 -4.46696 22.786
rtibia 69.3241 0 0
rfoot -28.7765 -27.8674 0
rtoes -23.9588 0 0
lowerback 18.6818 1.0569 3.88683
upperback 0.692199 2.43632 3.23556
thorax -9.73297 1.01338 0.680001
lowerneck -2.34904 12.7921 3.74269
upperneck -1.59064 17.0358 -9.82482
head 1.16155 8.47604 -3.32071
lclavicle -2.46751e-15 -1.60497e-14 0
lhumerus 97.8146 -32.9757 21.3518
lradius 90.01 0 0
lwrist 22.9209 0 0
lhand -2.86404 21.4615 0
lfingers 7.12502 0 0
lthumb 18.3764 55.7371 0
rclavicle 7.97967e-15 -1.7685e-14 0
rhumerus 22.5463 34.5982 -56.9283
rradius 66.1444 0 0
rwrist -12.5816 0 0
rhand -16.0982 -41.8025 0
rfingers 7.12502 0 0
rthumb 14.0077 -71.2662 0
817
root -4.14739 14.7229 -40.3834 392.027 -74.3767 336.921
lfemur -66.2821 17.4723 -20.9313
ltibia 81.6863 0 0
lfoot -1.74976 10.9968 0
ltoes -20.2487 0 0
rfemur -30.5993 -5.42319 22.8478
rtibia 69.4979 0 0
rfoot -28.9644 -27.6987 0
rtoes -23.8933 0 0
lowerback 18.6255 1.05804 3.69067
upperback 0.603956 2.39429 3.12691
thorax -9.80266 1.00147 0.683967
lowerneck -2.12521 12.7933 4.04046
upperneck -1.75224 17.0299 -10.1705
head 1.13498 8.48043 -3.50179
lclavicle 4.27835e-16 -1.4023e-14 0
lhumerus 96.8213 -33.2798 21.3841
lradius 91.3599 0 0
lwrist 22.964 0 0
lhand -3.2205 21.6849 0
lfingers 7.12502 0 0
lthumb 17.811 56.076 0
rclavicle 8.8395e-15 -1.82265e-14 0
rhumerus 24.5003 35.5866 -56.4857
rradius 66.6364 0 0
rwrist -11.8181 0 0
rhand -16.1389 -41.5964 0
rfingers 7.12502 0 0
rthumb 13.2733 -71.4216 0
818
root -4.01894 14.7402 -40.4004 390.069 -73.9321 339.063
lfemur -65.5621 17.8448 -19.8392
ltibia 83.2057 0 0
lfoot -1.75609 11.1315 0
ltoes -19.17 0 0
rfemur -31.3147 -6.37943 22.9096
rtibia 69.6716 0 0
rfoot -29.1523 -27.5301 0
rtoes -23.8278 0 0
lowerback 18.5004 0.991298 3.3944
upperback 0.595062 2.23409 3.05112
thorax -9.75189 0.940477 0.812816
lowerneck -2.17975 12.9299 3.99244
upperneck -1.76273 17.2152 -10.3351
head 1.16764 8.57113 -3.53319
lclavicle 3.32318e-15 -1.19963e-14 0
lhumerus 95.8279 -33.584 21.4163
lradius 92.7098 0 0
lwrist 23.0071 0 0
lhand -3.57696 21.9083 0
lfingers 7.12502 0 0
lthumb 17.2457 56.415 0
rclavicle 9.69933e-15 -1.8768e-14 0
rhumerus 26.4542 36.5749 -56.0431
rradius 67.1285 0 0
rwrist -11.0546 0 0
rhand -16.1796 -41.3903 0
rfingers 7.12502 0 0
rthumb 12.5389 -71.5769 0
819
root -3.89351 14.7591 -40.4176 388.269 -73.3753 341.062
lfemur -64.8421 18.2173 -18.747
ltibia 82.0571 0 0
lfoot -1.76243 11.2663 0
ltoes -18.0912 0 0
rfemur -32.0301 -7.33566 22.9714
rtibia 69.8454 0 0
rfoot -29.3402 -27.3614 0
rtoes -23.7623 0 0
lowerback 18.3635 0.884077 3.07114
upperback 0.559063 2.02232 3.03753
thorax -9.72692 0.857189 1.03849
lowerneck -2.41447 13.1137 3.7429
upperneck -1.53685 17.4792 -10.2564
head 1.26847 8.69224 -3.42734
lclavicle 6.21852e-15 -9.96953e-15 0
lhumerus 94.8346 -33.8881 21.4486
lradius 94.0598 0 0
lwrist 23.0502 0 0
lhand -3.93342 22.1317 0
lfingers 7.12502 0 0
lthumb 16.6803 56.7539 0
rclavicle 1.05592e-14 -1.93095e-14 0
rhumerus 27.604 37.878 -54.4231
rradius 67.6206 0 0
rwrist -10.291 0 0
rhand -16.2203 -41.1842 0
rfingers 7.12502 0 0
rthumb 13.5353 -70.443 0
820
root -3.77527 14.776 -40.4307 386.453 -72.8675 342.986
lfemur -64.1221 18.5898 -17.6548
ltibia 80.9084 0 0
lfoot -1.76876 11.401 0
ltoes -17.0125 0 0
rfemur -32.7456 -8.2919 23.0333
rtibia 70.0191 0 0
rfoot -29.5281 -27.1928 0
rtoes -23.6968 0 0
lowerback 18.2522 0.885413 3.26605
upperback 0.490623 2.02441 2.54879
thorax -9.71323 0.840823 0.394933
lowerneck -2.17725 12.9692 4.27036
upperneck -1.64931 17.2716 -10.2103
head 1.222 8.59733 -3.52939
lclavicle 9.11387e-15 -7.94279e-15 0
lhumerus 93.8412 -34.1922 21.4808
lradius 95.4097 0 0
lwrist 23.0933 0 0
lhand -4.28988 22.3551 0
lfingers 7.12502 0 0
lthumb 16.1149 57.0929 0
rclavicle 1.1419e-14 -1.98511e-14 0
rhumerus 28.7538 39.181 -52.8031
rradius 68.1127 0 0
rwrist -9.52752 0 0
rhand -16.261 -40.9781 0
rfingers 7.12502 0 0
rthumb 14.5317 -69.3092 0
821
root -3.66157 14.7792 -40.4415 384.902 -72.3114 344.638
lfemur -63.4021 18.9623 -16.5626
ltibia 79.7598 0 0
lfoot -1.7751 11.5358 0
ltoes -15.9338 0 0
rfemur -33.461 -9.24813 23.0951
rtibia 70.1929 0 0
rfoot -29.7159 -27.0242 0
rtoes -23.6313 0 0
lowerback 18.3645 0.386855 4.72491
upperback 0.315096 1.56706 1.18217
thorax -9.8966 0.520432 -1.80598
lowerneck -2.18488 13.0674 5.22711
upperneck -1.63087 17.3761 -9.35259
head 1.23752 8.65083 -3.39655
lclavicle 1.20092e-14 -5.91605e-15 0
lhumerus 92.8478 -34.4963 21.513
lradius 96.7597 0 0
lwrist 23.1364 0 0
lhand -4.64634 22.5785 0
lfingers 7.12502 0 0
lthumb 15.5496 57.4318 0
rclavicle 1.22788e-14 -2.03926e-14 0
rhumerus 29.9037 40.4841 -51.1831
rradius 68.6047 0 0
rwrist -8.76398 0 0
rhand -16.3017 -40.772 0
rfingers 7.12502 0 0
rthumb 15.5281 -68.1753 0
822
root -3.55096 14.8077 -40.4512 383.904 -71.7614 345.654
lfemur -62.6821 19.3348 -15.4704
ltibia 78.6112 0 0
lfoot -1.78143 11.6706 0
ltoes -14.8551 0 0
rfemur -34.1765 -10.2044 23.1569
rtibia 70.3666 0 0
rfoot -29.9038 -26.8555 0
rtoes -23.5657 0 0
lowerback 18.3057 0.399199 4.47946
upperback 0.266515 1.53442 1.19925
thorax -9.92616 0.517131 -1.63907
lowerneck -2.19703 13.1186 5.12933
upperneck -1.39431 17.4598 -9.24841
head 1.3024 8.68943 -3.33304
lclavicle 1.49046e-14 -3.88931e-15 0
lhumerus 91.8545 -34.8005 21.5453
lradius 98.1096 0 0
lwrist 23.1794 0 0
lhand -5.0028 22.8019 0
lfingers 7.12502 0 0
lthumb 14.9842 57.7708 0
rclavicle 1.31386e-14 -2.09341e-14 0
rhumerus 31.0535 41.7871 -49.5631
rradius 69.0968 0 0
rwrist -8.00045 0 0
rhand -16.3424 -40.5659 0
rfingers 7.12502 0 0
rthumb 16.5245 -67.0415 0
823
root -3.44487 14.8291 -40.4547 382.977 -71.1712 346.593
lfemur -61.9621 19.7074 -14.3783
ltibia 77.4625 0 0
lfoot -1.78777 11.8053 0
ltoes -13.7764 0 0
rfemur -34.8919 -11.1606 23.2187
rtibia 70.5404 0 0
rfoot -30.0917 -26.6869 0
rtoes -23.5002 0 0
lowerback 18.12 1.26021 3.18359
upperback 0.162983 2.46504 1.89471
thorax -9.96737 1.03897 -0.38617
lowerneck -1.99271 12.511 5.64096
upperneck -0.958507 16.6878 -10.0369
head 1.48471 8.2966 -3.71696
lclavicle 1.77999e-14 -1.86257e-15 0
lhumerus 90.8611 -35.1046 21.5775
lradius 99.4596 0 0
lwrist 23.2225 0 0
lhand -5.35926 23.0253 0
lfingers 7.12502 0 0
lthumb 14.4189 58.1097 0
rclavicle 1.39985e-14 -2.14756e-14 0
rhumerus 32.2033 43.0902 -47.9431
rradius 69.5889 0 0
rwrist -7.23692 0 0
rhand -16.3831 -40.3598 0
rfingers 7.12502 0 0
rthumb 17.5209 -65.9076 0
